HIERARCHY
ROOT Hips
{
	OFFSET 0.000000 87.230942 0.000000
	CHANNELS 6 Xposition Yposition Zposition Xrotation Yrotation Zrotation
	JOINT Pelvis
	{
		OFFSET 0.000000 0.000000 0.000000
		CHANNELS 3 Xrotation Yrotation Zrotation
		JOINT LeftUpLeg
		{
			OFFSET 12.017000 -9.376404 -2.439400
			CHANNELS 3 Xrotation Yrotation Zrotation
			JOINT LeftLeg
			{
				OFFSET -0.007312 -32.846973 2.110600
				CHANNELS 3 Xrotation Yrotation Zrotation
				JOINT LeftFoot
				{
					OFFSET 0.007312 -32.065170 -0.570400
					CHANNELS 3 Xrotation Yrotation Zrotation
					JOINT LeftToeBase
					{
						OFFSET 0.728300 -11.045900 13.180700
						CHANNELS 3 Xrotation Yrotation Zrotation
						End Site
						{
							OFFSET 0.000000 17.212589 0.000000
						}
					}
				}
				JOINT LeftPantLeg
				{
					OFFSET 0.002788 -16.709013 -3.143600
					CHANNELS 3 Xrotation Yrotation Zrotation
					End Site
					{
						OFFSET -0.605125 24.528742 0.000000
					}
				}
			}
			JOINT Left_Butt
			{
				OFFSET -6.630234 1.326584 -3.183700
				CHANNELS 3 Xrotation Yrotation Zrotation
				End Site
				{
					OFFSET -0.498041 20.188049 0.000000
				}
			}
		}
		JOINT RightUpLeg
		{
			OFFSET -11.717000 -9.376404 -2.439400
			CHANNELS 3 Xrotation Yrotation Zrotation
			JOINT RightLeg
			{
				OFFSET -0.003241 -32.846912 2.110600
				CHANNELS 3 Xrotation Yrotation Zrotation
				JOINT RightFoot
				{
					OFFSET 0.003241 -32.065136 -0.570500
					CHANNELS 3 Xrotation Yrotation Zrotation
					JOINT RightToeBase
					{
						OFFSET -0.728300 -11.045901 13.180700
						CHANNELS 3 Xrotation Yrotation Zrotation
						End Site
						{
							OFFSET 0.000000 17.212593 0.000000
						}
					}
				}
				JOINT RightPantLeg
				{
					OFFSET 0.008142 -16.708982 -3.143700
					CHANNELS 3 Xrotation Yrotation Zrotation
					End Site
					{
						OFFSET 0.605088 24.528715 0.000000
					}
				}
			}
			JOINT Right_Butt
			{
				OFFSET 6.630732 1.326584 -3.183700
				CHANNELS 3 Xrotation Yrotation Zrotation
				End Site
				{
					OFFSET 0.498015 20.188240 0.000000
				}
			}
		}
	}
	JOINT Spine
	{
		OFFSET -0.062400 7.848404 3.918300
		CHANNELS 3 Xrotation Yrotation Zrotation
		JOINT Spine1
		{
			OFFSET -0.072800 11.422302 0.713400
			CHANNELS 3 Xrotation Yrotation Zrotation
			JOINT Spine2
			{
				OFFSET -0.083200 13.054001 -1.931600
				CHANNELS 3 Xrotation Yrotation Zrotation
				JOINT Neck
				{
					OFFSET -0.092200 14.121796 -5.138800
					CHANNELS 3 Xrotation Yrotation Zrotation
					JOINT Head
					{
						OFFSET 0.000200 10.447403 -0.842000
						CHANNELS 3 Xrotation Yrotation Zrotation
						JOINT Visor
						{
							OFFSET 0.457100 25.671204 16.550400
							CHANNELS 3 Xrotation Yrotation Zrotation
							End Site
							{
								OFFSET 0.000000 26.061493 0.000000
							}
						}
						JOINT HairMidA
						{
							OFFSET 0.459400 31.585403 8.437400
							CHANNELS 3 Xrotation Yrotation Zrotation
							End Site
							{
								OFFSET 0.000000 26.061493 0.000000
							}
						}
						JOINT HairMidB
						{
							OFFSET 0.464000 33.309204 -8.389700
							CHANNELS 3 Xrotation Yrotation Zrotation
							End Site
							{
								OFFSET 0.000000 26.061493 0.000000
							}
						}
						JOINT HairMidC
						{
							OFFSET 0.466600 27.991196 -17.375099
							CHANNELS 3 Xrotation Yrotation Zrotation
							End Site
							{
								OFFSET 0.000000 26.061493 0.000000
							}
						}
						JOINT HairMidD
						{
							OFFSET 0.467700 17.888092 -21.169500
							CHANNELS 3 Xrotation Yrotation Zrotation
							End Site
							{
								OFFSET 0.000000 26.061493 0.000000
							}
						}
						JOINT HairMidE
						{
							OFFSET 5.325700 3.514603 -14.369699
							CHANNELS 3 Xrotation Yrotation Zrotation
							End Site
							{
								OFFSET 0.000000 26.061493 0.000000
							}
						}
						JOINT HairMidF
						{
							OFFSET -4.394100 3.514603 -14.372400
							CHANNELS 3 Xrotation Yrotation Zrotation
							End Site
							{
								OFFSET 0.000000 26.061493 0.000000
							}
						}
						JOINT HairLeftA
						{
							OFFSET 15.319900 25.746506 2.623300
							CHANNELS 3 Xrotation Yrotation Zrotation
							End Site
							{
								OFFSET 0.000000 26.061493 0.000000
							}
						}
						JOINT HairLeftB
						{
							OFFSET 12.619500 29.289398 -8.731499
							CHANNELS 3 Xrotation Yrotation Zrotation
							End Site
							{
								OFFSET 0.000000 26.061493 0.000000
							}
						}
						JOINT HairLeftC
						{
							OFFSET 15.714800 15.959900 2.909800
							CHANNELS 3 Xrotation Yrotation Zrotation
							End Site
							{
								OFFSET 0.000000 26.061493 0.000000
							}
						}
						JOINT HairLeftD
						{
							OFFSET 16.101700 18.437408 -7.553200
							CHANNELS 3 Xrotation Yrotation Zrotation
							End Site
							{
								OFFSET 0.000000 26.061493 0.000000
							}
						}
						JOINT HairLeftE
						{
							OFFSET 9.731900 17.915009 -18.316799
							CHANNELS 3 Xrotation Yrotation Zrotation
							End Site
							{
								OFFSET 0.000000 26.061493 0.000000
							}
						}
						JOINT HairLeftF
						{
							OFFSET 11.204300 4.953598 -9.668100
							CHANNELS 3 Xrotation Yrotation Zrotation
							End Site
							{
								OFFSET 0.000000 26.061493 0.000000
							}
						}
						JOINT HairRightA
						{
							OFFSET -14.397900 25.746307 2.615100
							CHANNELS 3 Xrotation Yrotation Zrotation
							End Site
							{
								OFFSET 0.000000 26.061493 0.000000
							}
						}
						JOINT HairRightB
						{
							OFFSET -11.691200 29.289200 -8.738199
							CHANNELS 3 Xrotation Yrotation Zrotation
							End Site
							{
								OFFSET 0.000000 26.061493 0.000000
							}
						}
						JOINT HairRightC
						{
							OFFSET -14.792900 15.959702 2.901400
							CHANNELS 3 Xrotation Yrotation Zrotation
							End Site
							{
								OFFSET 0.000000 26.061493 0.000000
							}
						}
						JOINT HairRightD
						{
							OFFSET -15.174000 18.437195 -7.561900
							CHANNELS 3 Xrotation Yrotation Zrotation
							End Site
							{
								OFFSET 0.000000 26.061493 0.000000
							}
						}
						JOINT HairRightE
						{
							OFFSET -8.798200 17.914902 -18.322001
							CHANNELS 3 Xrotation Yrotation Zrotation
							End Site
							{
								OFFSET 0.000000 26.061493 0.000000
							}
						}
						JOINT HairRightF
						{
							OFFSET -10.275200 4.953506 -9.674099
							CHANNELS 3 Xrotation Yrotation Zrotation
							End Site
							{
								OFFSET 0.000000 26.061493 0.000000
							}
						}
					}
				}
				JOINT LeftShoulder
				{
					OFFSET 5.133500 7.341202 -1.867600
					CHANNELS 3 Xrotation Yrotation Zrotation
					JOINT LeftArm
					{
						OFFSET 8.072663 0.936867 -2.176600
						CHANNELS 3 Xrotation Yrotation Zrotation
						JOINT LeftForeArm
						{
							OFFSET 31.271999 0.000000 0.000000
							CHANNELS 3 Xrotation Yrotation Zrotation
							JOINT LeftHand
							{
								OFFSET 31.771030 0.000000 0.000000
								CHANNELS 3 Xrotation Yrotation Zrotation
								JOINT LeftHandThumb1
								{
									OFFSET 2.886520 -2.557846 4.416640
									CHANNELS 3 Xrotation Yrotation Zrotation
									JOINT LeftHandThumb2
									{
										OFFSET 2.371025 -1.368912 1.368911
										CHANNELS 3 Xrotation Yrotation Zrotation
										JOINT LeftHandThumb3
										{
											OFFSET 2.243378 -1.295212 1.295213
											CHANNELS 3 Xrotation Yrotation Zrotation
											End Site
											{
												OFFSET -0.332611 2.876945 0.020015
											}
										}
									}
								}
								JOINT LeftHandIndex1
								{
									OFFSET 8.568985 -0.641945 3.119977
									CHANNELS 3 Xrotation Yrotation Zrotation
									JOINT LeftHandIndex2
									{
										OFFSET 3.348503 0.000000 0.000000
										CHANNELS 3 Xrotation Yrotation Zrotation
										JOINT LeftHandIndex3
										{
											OFFSET 3.314552 0.000000 0.000000
											CHANNELS 3 Xrotation Yrotation Zrotation
											End Site
											{
												OFFSET -1.032898 3.075485 0.678796
											}
										}
									}
								}
								JOINT LeftHandMiddle1
								{
									OFFSET 8.124603 0.000000 0.000000
									CHANNELS 3 Xrotation Yrotation Zrotation
									JOINT LeftHandMiddle2
									{
										OFFSET 4.166275 0.000000 0.000000
										CHANNELS 3 Xrotation Yrotation Zrotation
										JOINT LeftHandMiddle3
										{
											OFFSET 3.018135 0.000000 0.000000
											CHANNELS 3 Xrotation Yrotation Zrotation
											End Site
											{
												OFFSET -1.032700 2.767982 0.617226
											}
										}
									}
								}
								JOINT LeftHandRing1
								{
									OFFSET 8.571686 -0.031357 -2.884048
									CHANNELS 3 Xrotation Yrotation Zrotation
									JOINT LeftHandRing2
									{
										OFFSET 3.671181 0.000000 0.000000
										CHANNELS 3 Xrotation Yrotation Zrotation
										JOINT LeftHandRing3
										{
											OFFSET 2.728851 0.000000 0.000000
											CHANNELS 3 Xrotation Yrotation Zrotation
											End Site
											{
												OFFSET -0.815796 2.539223 0.577389
											}
										}
									}
								}
								JOINT LeftHandPinky1
								{
									OFFSET 7.854515 -0.675232 -5.213020
									CHANNELS 3 Xrotation Yrotation Zrotation
									JOINT LeftHandPinky2
									{
										OFFSET 3.068596 0.000000 0.000000
										CHANNELS 3 Xrotation Yrotation Zrotation
										JOINT LeftHandPinky3
										{
											OFFSET 2.396042 0.000000 0.000000
											CHANNELS 3 Xrotation Yrotation Zrotation
											End Site
											{
												OFFSET -0.524597 2.267998 0.567429
											}
										}
									}
								}
							}
							JOINT LeftSleeve
							{
								OFFSET 19.684509 -0.200119 0.476146
								CHANNELS 3 Xrotation Yrotation Zrotation
								End Site
								{
									OFFSET -0.031017 25.731133 -0.002868
								}
							}
						}
					}
				}
				JOINT RightShoulder
				{
					OFFSET -4.395900 7.341202 -1.870200
					CHANNELS 3 Xrotation Yrotation Zrotation
					JOINT RightArm
					{
						OFFSET -8.071453 0.936867 -2.181100
						CHANNELS 3 Xrotation Yrotation Zrotation
						JOINT RightForeArm
						{
							OFFSET -31.272011 0.000000 0.000000
							CHANNELS 3 Xrotation Yrotation Zrotation
							JOINT RightHand
							{
								OFFSET -31.771019 0.000000 0.000000
								CHANNELS 3 Xrotation Yrotation Zrotation
								JOINT RightHandThumb1
								{
									OFFSET -2.886520 -2.557808 4.416626
									CHANNELS 3 Xrotation Yrotation Zrotation
									JOINT RightHandThumb2
									{
										OFFSET -2.371056 -1.368927 1.368928
										CHANNELS 3 Xrotation Yrotation Zrotation
										JOINT RightHandThumb3
										{
											OFFSET -2.243362 -1.295204 1.295206
											CHANNELS 3 Xrotation Yrotation Zrotation
											End Site
											{
												OFFSET 0.332642 2.876938 0.020047
											}
										}
									}
								}
								JOINT RightHandIndex1
								{
									OFFSET -8.568993 -0.641953 3.120017
									CHANNELS 3 Xrotation Yrotation Zrotation
									JOINT RightHandIndex2
									{
										OFFSET -3.348518 0.000000 0.000000
										CHANNELS 3 Xrotation Yrotation Zrotation
										JOINT RightHandIndex3
										{
											OFFSET -3.314552 0.000000 0.000000
											CHANNELS 3 Xrotation Yrotation Zrotation
											End Site
											{
												OFFSET 1.032898 3.075478 0.678804
											}
										}
									}
								}
								JOINT RightHandMiddle1
								{
									OFFSET -8.124588 0.000000 0.000000
									CHANNELS 3 Xrotation Yrotation Zrotation
									JOINT RightHandMiddle2
									{
										OFFSET -4.166275 0.000000 0.000000
										CHANNELS 3 Xrotation Yrotation Zrotation
										JOINT RightHandMiddle3
										{
											OFFSET -3.018097 0.000000 0.000000
											CHANNELS 3 Xrotation Yrotation Zrotation
											End Site
											{
												OFFSET 1.032700 2.767937 0.617197
											}
										}
									}
								}
								JOINT RightHandRing1
								{
									OFFSET -8.571747 -0.031349 -2.884061
									CHANNELS 3 Xrotation Yrotation Zrotation
									JOINT RightHandRing2
									{
										OFFSET -3.671204 0.000000 0.000000
										CHANNELS 3 Xrotation Yrotation Zrotation
										JOINT RightHandRing3
										{
											OFFSET -2.728874 0.000000 0.000000
											CHANNELS 3 Xrotation Yrotation Zrotation
											End Site
											{
												OFFSET 0.815804 2.539261 0.577413
											}
										}
									}
								}
								JOINT RightHandPinky1
								{
									OFFSET -7.854561 -0.675247 -5.212970
									CHANNELS 3 Xrotation Yrotation Zrotation
									JOINT RightHandPinky2
									{
										OFFSET -3.068550 0.000000 0.000000
										CHANNELS 3 Xrotation Yrotation Zrotation
										JOINT RightHandPinky3
										{
											OFFSET -2.395981 0.000000 0.000000
											CHANNELS 3 Xrotation Yrotation Zrotation
											End Site
											{
												OFFSET 0.524605 2.267952 0.567413
											}
										}
									}
								}
							}
							JOINT RightSleeve
							{
								OFFSET -19.684753 -0.200165 0.476065
								CHANNELS 3 Xrotation Yrotation Zrotation
								End Site
								{
									OFFSET 0.031342 25.731255 -0.002917
								}
							}
						}
					}
				}
				JOINT Hood
				{
					OFFSET 0.369700 14.447800 -5.317800
					CHANNELS 3 Xrotation Yrotation Zrotation
					JOINT Hood1
					{
						OFFSET 0.001700 -5.553802 -5.895100
						CHANNELS 3 Xrotation Yrotation Zrotation
						JOINT Hood2
						{
							OFFSET -0.000200 -8.380501 0.763600
							CHANNELS 3 Xrotation Yrotation Zrotation
							End Site
							{
								OFFSET 0.000000 8.415215 0.000000
							}
						}
					}
				}
				JOINT Left_Breast
				{
					OFFSET 5.682500 3.120102 3.188800
					CHANNELS 3 Xrotation Yrotation Zrotation
					End Site
					{
						OFFSET 0.000000 10.528564 0.000000
					}
				}
				JOINT Right_Breast
				{
					OFFSET -4.947600 3.120102 3.185900
					CHANNELS 3 Xrotation Yrotation Zrotation
					End Site
					{
						OFFSET 0.000000 10.528564 0.000000
					}
				}
				JOINT Whistle
				{
					OFFSET 0.368200 11.471298 0.095400
					CHANNELS 3 Xrotation Yrotation Zrotation
					JOINT Whistle1
					{
						OFFSET -0.002000 -6.349899 7.479800
						CHANNELS 3 Xrotation Yrotation Zrotation
						JOINT Whistle2
						{
							OFFSET -0.001300 -8.217598 4.717600
							CHANNELS 3 Xrotation Yrotation Zrotation
							End Site
							{
								OFFSET 0.000000 9.475479 0.000000
							}
						}
					}
				}
			}
		}
		JOINT Belly
		{
			OFFSET 0.212400 1.593002 3.163700
			CHANNELS 3 Xrotation Yrotation Zrotation
			End Site
			{
				OFFSET 0.000000 7.496635 0.000000
			}
		}
	}
	JOINT FitGrandmaFacialAnim_Joint
	{
		OFFSET 1.150000 -86.211197 -1.220100
		CHANNELS 3 Xrotation Yrotation Zrotation
		End Site
		{
			OFFSET 0.000000 31.666618 0.000000
		}
	}
}
MOTION
Frames: 4
Frame Time: 0.016667
-2.171255 116.518051 268.251038 6.802812 -37.182437 19.426658 0.000000 0.000001 -0.000000 -86.362811 -17.843789 20.095550 108.521433 19.030048 6.394839 -20.656732 0.748444 3.312321 0.000001 -0.000002 0.000002 0.000000 0.000000 0.000000 0.000000 0.000003 0.000001 -87.826869 -26.066029 4.005358 110.438073 18.548985 4.344369 2.177918 4.925868 5.013563 -0.000000 0.000000 -0.000001 -0.000000 0.000000 -0.000002 0.000000 0.000004 0.000001 36.569960 5.509481 -28.187069 10.113554 4.487077 -5.651612 17.344347 -0.255002 0.868252 -12.219169 18.249671 -13.297134 -37.838657 -7.524092 1.760360 -0.000001 0.000000 0.000000 -0.000001 0.000000 0.000000 -0.000001 0.000000 0.000000 -0.000001 0.000000 0.000000 -0.000001 0.000000 0.000000 -0.000001 0.000000 0.000000 -0.000001 0.000000 0.000000 -0.000001 0.000000 0.000000 -0.000001 0.000000 0.000000 -0.000001 0.000000 0.000000 -0.000001 0.000000 0.000000 -0.000001 0.000000 0.000000 -0.000001 0.000000 0.000000 -0.000001 0.000000 0.000000 -0.000001 0.000000 0.000000 -0.000001 0.000000 0.000000 -0.000001 0.000000 0.000000 -0.000001 0.000000 0.000000 -0.000001 0.000000 0.000000 3.460655 -8.918321 -0.904749 -83.626814 1.219638 -12.071363 -339.578318 -61.813137 -343.756454 -7.849516 9.865836 25.085418 17.551570 -5.699214 -12.932256 10.850559 26.127724 8.644745 0.000001 -0.000002 -0.000002 13.980888 1.201552 -55.004371 0.370799 1.161695 -65.441887 0.000002 -0.000001 -0.000001 7.504735 1.174516 -63.778517 1.807874 1.475647 -64.568019 -0.000002 0.000000 -0.000001 8.574322 2.179164 -75.148965 -0.207610 1.009307 -57.855056 -0.000001 -0.000001 0.000004 10.030074 13.637131 -84.750230 0.877107 0.062332 -64.595462 0.000001 -0.000001 -0.000002 -0.000000 0.000001 0.000000 7.814337 26.927345 -8.074464 -63.242702 -8.464372 33.803620 -75.905450 19.956800 56.360225 103.847760 -11.344584 -4.184697 -0.360662 0.058174 -0.543029 4.001287 -8.596768 -1.236485 0.000001 0.000001 -0.000001 1.178593 -0.282671 1.711515 -0.146687 -0.226846 7.547516 -0.000003 0.000001 0.000002 3.352591 -1.937767 -0.812890 0.311543 -0.271407 28.365057 0.000001 0.000001 -0.000003 2.261832 -7.957670 2.165571 0.288140 -0.079125 26.161663 0.000004 -0.000003 -0.000001 1.961593 -6.393497 2.504511 0.531432 0.722215 34.300592 -0.000001 0.000001 -0.000004 0.000001 -0.000002 -0.000001 0.000000 -0.000000 0.000000 0.000000 -0.000000 0.000000 0.000000 -0.000000 0.000000 0.000000 -0.000000 0.000000 0.000000 -0.000000 0.000000 -0.000000 -0.000000 -0.000000 -0.000002 -0.000000 0.000001 -0.000002 -0.000000 0.000001 -0.000002 -0.000000 -0.000000 0.000000 0.000001 -0.000000 
-2.064665 116.034988 272.875275 8.274392 -36.854437 19.962862 -0.000001 0.000002 0.000001 -85.279092 -16.784456 20.955789 106.099872 17.084287 6.371054 -21.185662 1.133096 1.757403 0.000000 0.000001 -0.000004 -0.000000 0.000000 0.000001 0.000001 0.000002 0.000001 -88.281342 -25.490155 4.328538 101.791122 20.590445 7.112135 -1.457110 4.245195 6.353337 -0.000000 0.000001 -0.000002 -0.000001 -0.000001 -0.000003 0.000002 -0.000001 -0.000005 36.291005 5.659496 -27.681196 10.417170 4.343072 -5.637416 17.590075 -0.300818 0.846442 -11.986778 17.712583 -13.403268 -38.648701 -7.453907 1.396193 0.000002 0.000000 0.000000 0.000002 0.000000 0.000000 0.000002 0.000000 0.000000 0.000002 0.000000 0.000000 0.000002 0.000000 0.000000 0.000002 0.000000 0.000000 0.000002 0.000000 0.000000 0.000002 0.000000 0.000000 0.000002 0.000000 0.000000 0.000002 0.000000 0.000000 0.000002 0.000000 0.000000 0.000002 0.000000 0.000000 0.000002 0.000000 0.000000 0.000002 0.000000 0.000000 0.000002 0.000000 0.000000 0.000002 0.000000 0.000000 0.000002 0.000000 0.000000 0.000002 0.000000 0.000000 0.000002 0.000000 0.000000 3.732750 -8.938838 -0.897979 -82.664045 -0.098871 -10.383349 -346.709828 -62.155090 -350.113940 -8.715351 8.791301 25.759019 17.551570 -5.699209 -12.932256 10.850560 26.127716 8.644742 -0.000001 -0.000002 -0.000000 13.980887 1.201560 -55.004364 0.370798 1.161693 -65.441887 0.000005 0.000001 0.000001 7.504736 1.174519 -63.778524 1.807872 1.475648 -64.568019 -0.000001 -0.000001 -0.000004 8.574321 2.179167 -75.148972 -0.207617 1.009305 -57.855063 0.000001 0.000000 0.000000 10.030077 13.637133 -84.750230 0.877106 0.062325 -64.595469 0.000001 0.000001 0.000000 0.000001 0.000000 -0.000000 7.302794 26.569089 -6.881551 -60.118198 -8.940508 34.394107 -76.312713 20.173449 58.156609 101.670275 -13.677697 -5.595387 -0.360541 0.058151 -0.542843 4.001296 -8.596746 -1.236483 -0.000001 -0.000001 0.000000 1.178584 -0.282246 0.826517 -0.148745 -0.225333 6.662551 0.000000 0.000004 0.000000 3.352644 -1.937394 -1.697913 0.311853 -0.271997 27.480091 -0.000002 -0.000002 -0.000004 2.261792 -7.957279 1.280571 0.287414 -0.081021 25.276659 -0.000000 -0.000002 0.000003 1.961563 -6.393098 1.619546 0.531219 0.722518 33.415577 -0.000006 -0.000001 0.000001 -0.000003 0.000000 -0.000003 0.000001 -0.000000 0.000000 0.000001 -0.000000 0.000000 0.000001 -0.000000 0.000000 0.000001 -0.000000 0.000000 0.000001 -0.000000 0.000000 0.000001 -0.000000 -0.000000 0.000001 -0.000000 0.000000 0.000001 -0.000000 0.000000 -0.000000 0.000000 -0.000000 -0.000001 0.000002 0.000001 
-2.016163 115.383484 277.592987 9.640334 -36.378516 20.400877 -0.000000 -0.000002 0.000000 -83.918259 -15.746407 20.764970 102.935636 16.677828 6.831920 -21.260571 1.598796 0.074258 0.000000 0.000001 -0.000001 -0.000000 0.000000 -0.000003 0.000000 -0.000000 -0.000000 -86.950828 -23.156491 3.898929 90.749466 22.210872 11.382708 -3.348049 3.299380 7.975323 -0.000000 0.000001 -0.000002 -0.000001 -0.000001 0.000001 0.000002 -0.000001 -0.000002 35.811167 5.820228 -27.095828 10.724713 4.198464 -5.583330 17.800919 -0.342640 0.829319 -11.305827 16.957796 -13.348741 -39.456121 -7.132158 0.943232 0.000002 0.000000 -0.000000 0.000002 0.000000 -0.000000 0.000002 0.000000 -0.000000 0.000002 0.000000 -0.000000 0.000002 0.000000 -0.000000 0.000002 0.000000 -0.000000 0.000002 0.000000 -0.000000 0.000002 0.000000 -0.000000 0.000002 0.000000 -0.000000 0.000002 0.000000 -0.000000 0.000002 0.000000 -0.000000 0.000002 0.000000 -0.000000 0.000002 0.000000 -0.000000 0.000002 0.000000 -0.000000 0.000002 0.000000 -0.000000 0.000002 0.000000 -0.000000 0.000002 0.000000 -0.000000 0.000002 0.000000 -0.000000 0.000002 0.000000 -0.000000 4.015696 -8.916290 -0.887795 -82.276773 -1.094237 -8.977282 -352.924890 -62.243637 -355.786084 -9.353956 7.465131 26.072482 17.551571 -5.699216 -12.932257 10.850558 26.127726 8.644747 -0.000002 -0.000002 -0.000000 13.980888 1.201555 -55.004367 0.370797 1.161697 -65.441887 0.000004 0.000001 0.000002 7.504737 1.174514 -63.778531 1.807880 1.475643 -64.568019 -0.000001 -0.000000 -0.000003 8.574320 2.179164 -75.148979 -0.207616 1.009308 -57.855063 0.000002 -0.000001 -0.000002 10.030075 13.637128 -84.750237 0.877107 0.062331 -64.595469 -0.000002 -0.000000 0.000001 0.000003 -0.000001 0.000000 6.746325 26.067559 -5.641310 -56.516465 -9.132691 35.083909 -76.680635 20.592541 59.887064 98.889022 -15.813109 -7.286366 -0.360436 0.058156 -0.542668 4.001299 -8.596748 -1.236497 0.000000 -0.000000 0.000002 1.177308 -0.282003 0.225303 -0.150312 -0.224063 6.061343 0.000000 -0.000000 -0.000000 3.352824 -1.937108 -2.299105 0.310516 -0.273201 26.878872 -0.000002 -0.000002 -0.000004 2.261785 -7.956978 0.679361 0.286939 -0.082347 24.675486 0.000002 0.000001 -0.000002 1.961563 -6.392803 1.018337 0.532390 0.723614 32.814414 0.000001 -0.000002 -0.000001 -0.000003 -0.000001 -0.000001 -0.000003 0.000000 0.000001 -0.000003 0.000000 0.000001 -0.000003 0.000000 0.000001 -0.000003 0.000000 0.000001 -0.000003 0.000000 0.000001 -0.000003 0.000000 0.000001 -0.000001 0.000000 0.000001 -0.000001 0.000000 0.000001 -0.000002 -0.000000 -0.000000 -0.000000 -0.000002 0.000000 
-1.999445 114.561722 282.333374 10.893081 -35.809073 20.741765 0.000000 -0.000001 -0.000001 -82.381644 -14.494276 20.442766 99.182400 16.895945 7.537637 -21.674080 1.987099 -1.379620 0.000001 -0.000000 -0.000001 -0.000001 0.000000 0.000002 0.000001 -0.000001 0.000001 -84.296439 -18.841046 3.988937 78.963715 21.183891 16.203181 -2.529530 2.165519 9.782377 0.000001 0.000002 -0.000003 -0.000000 0.000001 0.000000 -0.000002 -0.000003 0.000000 35.143526 6.018810 -26.456140 11.018716 4.045009 -5.488551 17.963824 -0.390538 0.823579 -10.228587 16.066919 -13.225068 -40.188898 -6.646899 0.502570 0.000001 0.000000 -0.000000 0.000001 0.000000 -0.000000 0.000001 0.000000 -0.000000 0.000001 0.000000 -0.000000 0.000001 0.000000 -0.000000 0.000001 0.000000 -0.000000 0.000001 0.000000 -0.000000 0.000001 0.000000 -0.000000 0.000001 0.000000 -0.000000 0.000001 0.000000 -0.000000 0.000001 0.000000 -0.000000 0.000001 0.000000 -0.000000 0.000001 0.000000 -0.000000 0.000001 0.000000 -0.000000 0.000001 0.000000 -0.000000 0.000001 0.000000 -0.000000 0.000001 0.000000 -0.000000 0.000001 0.000000 -0.000000 0.000001 0.000000 -0.000000 4.292254 -8.864044 -0.877265 -82.115307 -1.901183 -7.653572 -358.213041 -62.124464 -360.712208 -10.044889 6.053062 26.102958 17.551568 -5.699212 -12.932258 10.850560 26.127721 8.644747 -0.000001 -0.000001 0.000001 13.980890 1.201556 -55.004367 0.370798 1.161695 -65.441887 0.000001 0.000001 0.000001 7.504735 1.174519 -63.778524 1.807871 1.475646 -64.568019 -0.000002 -0.000001 0.000000 8.574319 2.179168 -75.148972 -0.207611 1.009304 -57.855056 -0.000001 -0.000001 -0.000004 10.030072 13.637133 -84.750230 0.877106 0.062334 -64.595469 -0.000002 -0.000000 0.000001 -0.000001 0.000000 0.000000 6.167930 25.450308 -4.367984 -52.538293 -9.038844 35.874367 -76.979155 21.195489 61.458971 95.621515 -17.694133 -9.145832 -0.360328 0.058170 -0.542501 4.001293 -8.596773 -1.236511 0.000003 0.000001 0.000003 1.177745 -0.281653 -0.050754 -0.149898 -0.223229 5.785278 -0.000002 -0.000001 0.000001 3.352997 -1.936999 -2.575179 0.309742 -0.272612 26.602829 0.000002 -0.000001 0.000002 2.262871 -7.956884 0.403460 0.287536 -0.082938 24.399396 -0.000004 -0.000004 -0.000002 1.961578 -6.392702 0.742265 0.533010 0.724127 32.538270 0.000001 -0.000001 -0.000002 -0.000001 -0.000001 0.000001 -0.000000 -0.000000 0.000000 -0.000000 -0.000000 0.000000 -0.000000 -0.000000 0.000000 -0.000000 -0.000000 0.000000 -0.000000 -0.000000 0.000000 -0.000000 -0.000000 -0.000000 -0.000000 -0.000000 0.000001 -0.000000 -0.000000 0.000001 0.000002 -0.000001 -0.000000 0.000000 -0.000001 -0.000001 
